<?xml version="1.0" standalone="no"?>
<!DOCTYPE svg PUBLIC "-//W3C//DTD SVG 20010904//EN"
 "http://www.w3.org/TR/2001/REC-SVG-20010904/DTD/svg10.dtd">
<svg version="1.0" xmlns="http://www.w3.org/2000/svg"
 width="512.000000pt" height="512.000000pt" viewBox="0 0 512.000000 512.000000"
 preserveAspectRatio="xMidYMid meet">

<g transform="translate(0.000000,512.000000) scale(0.100000,-0.100000)"
fill="#2563eb" stroke="none">
<path d="M1145 5109 c-256 -23 -522 -145 -720 -331 -134 -125 -253 -313 -314
-494 -63 -188 -61 -123 -61 -1724 0 -1601 -2 -1536 61 -1724 140 -418 491
-722 937 -813 81 -17 187 -18 1512 -18 1325 0 1431 1 1512 18 446 91 797 395
937 813 63 188 61 123 61 1724 0 1601 2 1536 -61 1724 -105 315 -327 563 -634
712 -131 63 -268 101 -419 114 -134 12 -2679 11 -2811 -1z m2539 -993 c107
-52 180 -147 205 -264 16 -75 16 -2509 0 -2584 -25 -117 -98 -212 -205 -264
l-59 -29 -960 0 -960 0 -66 32 c-79 39 -140 102 -177 181 -24 52 -27 70 -30
199 l-4 141 139 4 c153 3 180 12 221 72 29 42 30 118 2 163 -35 58 -81 73
-230 73 l-130 0 0 140 0 140 138 0 c154 0 184 10 222 72 42 69 17 166 -52 208
-29 17 -51 20 -170 20 l-138 0 0 140 0 140 138 0 c154 0 184 10 222 72 42 69
17 166 -52 208 -29 17 -51 20 -170 20 l-138 0 0 140 0 140 130 0 c112 0 137 3
171 20 105 54 108 204 4 267 -24 15 -56 19 -168 21 l-139 4 4 141 c3 128 6
148 29 197 45 97 107 155 208 197 l56 23 950 -3 950 -2 59 -29z m-1972 -633
c28 -25 24 -77 -9 -103 -26 -20 -36 -21 -235 -18 -223 3 -230 5 -243 58 -4 18
0 34 15 53 l21 27 216 0 c187 0 219 -2 235 -17z m-2 -583 c11 -11 20 -33 20
-50 0 -17 -9 -39 -20 -50 -19 -19 -33 -20 -229 -20 -184 0 -211 2 -229 18 -32
26 -37 63 -12 95 l21 27 215 0 c201 0 215 -1 234 -20z m0 -580 c11 -11 20 -33
20 -50 0 -17 -9 -39 -20 -50 -19 -19 -33 -20 -234 -20 l-215 0 -21 27 c-25 32
-20 69 12 96 18 15 45 17 229 17 196 0 210 -1 229 -20z m-6 -581 c31 -24 35
-72 9 -101 -15 -16 -36 -18 -234 -18 -230 0 -239 2 -254 49 -8 27 11 70 37 81
13 5 111 9 219 9 184 1 198 0 223 -20z"/>
<path d="M2590 3420 c-71 -15 -164 -66 -210 -116 -216 -234 -89 -601 227 -656
135 -23 277 36 365 151 56 73 78 139 78 238 0 206 -150 369 -357 387 -32 3
-78 1 -103 -4z"/>
<path d="M2528 2535 c-201 -51 -368 -214 -424 -415 -20 -73 -31 -319 -15 -348
l12 -22 557 0 c421 0 561 3 570 12 15 15 16 256 1 330 -19 94 -82 210 -152
281 -72 72 -129 109 -226 145 -84 31 -238 39 -323 17z"/>
</g>
</svg>
